<?xml version="1.0" encoding="utf-8"?>
<!-- Generator: Adobe Illustrator 23.0.3, SVG Export Plug-In . SVG Version: 6.00 Build 0)  -->
<svg version="1.1" id="Layer_1" xmlns="http://www.w3.org/2000/svg" xmlns:xlink="http://www.w3.org/1999/xlink" x="0px" y="0px"
	 viewBox="0 0 1024 512" style="enable-background:new 0 0 1024 512;" xml:space="preserve">
<path d="M99.2,376.4c-7.2,0-13.7,2.4-18.5,7.8c-5.4,5.4-7.8,11.4-7.8,19.1c0,7.2,2.4,13.7,7.8,19.1c5.4,5.4,11.4,7.8,18.5,7.8
	c7.8,0,13.7-2.4,19.1-7.8c5.4-5.4,7.8-12,7.8-19.1s-2.4-13.7-7.8-19.1C112.9,379.4,106.9,376.4,99.2,376.4z M422,323.8
	c0,23.9,0.6,40.6,2.4,50.8h-1.2c-2.4-4.8-7.2-12.6-13.7-22.7L237.3,81.8h-52v343.7h40V177.4c0-23.9-0.6-40-1.8-47.2h1.2
	c3,7.8,6.6,14.9,10.8,21.5L413,425.5h49V81.8h-40L422,323.8L422,323.8z M578,268.9h124.3v-36.5H578V118.2h133.9V81.8H537.3v343.7
	h182.3V389H578V268.9L578,268.9z M757.9,118.2h99.2v307.2h40V118.2h99.2V81.8H757.9V118.2z"/>
</svg>
