<svg xmlns="http://www.w3.org/2000/svg" viewBox="0 0 550.27 491.67"><defs><style>.cls-1{fill:none;stroke:#000;stroke-miterlimit:10;stroke-width:2.83px;}</style></defs><title>Asset 1</title><g id="Layer_2" data-name="Layer 2"><g id="Layer_1-2" data-name="Layer 1"><path class="cls-1" d="M25.8,235.89a29.82,29.82,0,0,0,26.76,6,4.52,4.52,0,0,1,6.25,5.83,19.33,19.33,0,0,1-7.21,6.19q-4.43,1.58-8.77,3.37a15,15,0,0,0-7.27,10.28,45.26,45.26,0,0,1-6.76,15.84q-1.31-7.57-2.08-15.23-.57-5.58-.85-11.2c-.09-1.89-.17-3.78-.21-5.68q0-1.77-.06-3.54c0-.71,0-1.42,0-2.13q0-4.92.22-9.74M181.52,34.62a43.44,43.44,0,0,0-5.82,9,15.66,15.66,0,0,0,0,12.31,3.26,3.26,0,0,1-5.42,3.58,31.93,31.93,0,0,0-17.86-13.65c1.78-.83,3.57-1.65,5.37-2.43,2.25-1,4.53-1.94,6.81-2.85q6.21-2.46,12.55-4.55c1.45-.48,4.37-1.39,4.37-1.39M1.42,245.83C1.42,110.85,111,1.42,246.1,1.42S490.79,110.85,490.79,245.83,381.24,490.25,246.1,490.25,1.42,380.82,1.42,245.83m97.25-98.06a18.35,18.35,0,0,0-18.45-14,17.33,17.33,0,0,0,15.35,20.42,3.93,3.93,0,0,1,4.73,5.47A24.52,24.52,0,0,1,80,170.29,8.77,8.77,0,0,1,71,164,12.06,12.06,0,0,0,62.24,157a55.89,55.89,0,0,0-19.76,3.74,220.91,220.91,0,0,1,61.57-83.91,32.32,32.32,0,0,0,13.6,28.4,9.69,9.69,0,0,1,5.16,8.15,2.07,2.07,0,0,1-.3,1.82,2,2,0,0,1-1.65.81,10.86,10.86,0,0,1-5.26-.68c-2.41-1.35-4.77-2.77-7.1-4.26a11.34,11.34,0,0,0-6.83-1.26,29,29,0,0,0-21.35,12.57,45.9,45.9,0,0,1,18.41,4.74A16.63,16.63,0,0,0,117.34,125a7.51,7.51,0,0,1,12.51,2,25.18,25.18,0,0,0,5.57,10.79,14.63,14.63,0,0,1,3.74,8.68,5.47,5.47,0,0,1-3,5.52,108.36,108.36,0,0,1-11.41,3.42,16.63,16.63,0,0,1-9-.11,15.21,15.21,0,0,0-8.73-2.89,17.32,17.32,0,0,1-3-.21,4.73,4.73,0,0,1-3.54-1,4.82,4.82,0,0,1-1.72-3.43M36.74,197.09a19.41,19.41,0,0,0,11,8.55,15.27,15.27,0,0,0,16.72,3.05,19.62,19.62,0,0,1,12.41,2,17.28,17.28,0,0,0,8.86,2.84,19.51,19.51,0,0,1,12.88,6.9,2.74,2.74,0,0,1-.72,3.79,8.71,8.71,0,0,1-5.71.9A22.4,22.4,0,0,0,80.92,227a11.71,11.71,0,0,1-7.33.36A14.75,14.75,0,0,0,69,226.08,1.94,1.94,0,0,0,67,229a8.17,8.17,0,0,0,2.83,2,2.92,2.92,0,0,1,1.21,2.37,3,3,0,0,1-1.21,2.38c-1.78,1.06-3.6,2-5.47,2.94A9.19,9.19,0,0,1,56,237.27a30.58,30.58,0,0,0-29.84-7.54,219.44,219.44,0,0,1,13-60.42,35.74,35.74,0,0,0,28.15,6.55A142.63,142.63,0,0,0,86,172.92a33.08,33.08,0,0,0,20.09-11.58,6.54,6.54,0,0,1,8.72-1.15,8.53,8.53,0,0,0,6.94.73,28.41,28.41,0,0,1,16,1.69,9.19,9.19,0,0,0,7.46.21,7.92,7.92,0,0,1,6.94,1.36,17.13,17.13,0,0,0,10.31,1.06,3.55,3.55,0,0,1,3.79,4.52,16.9,16.9,0,0,0-6.42,6,3.18,3.18,0,0,0,3.47,5.26,16.7,16.7,0,0,1,16.93-4.53,22.88,22.88,0,0,1,14.83,12,50.26,50.26,0,0,0,13.56,18.73,21.92,21.92,0,0,0,19.56,4.95,15,15,0,0,1,11.25,3.15,14.16,14.16,0,0,0,8.21,2,5.17,5.17,0,0,1,3.15,7.16,12.06,12.06,0,0,0-2,7.89,5,5,0,0,1-8.52,3.15,9.32,9.32,0,0,0-13.67-.84,29.94,29.94,0,0,1-24,1.48,41.78,41.78,0,0,1-8-4.42,21.72,21.72,0,0,0-14.83-4.63,10.82,10.82,0,0,1-9-8.53,35.07,35.07,0,0,1-1.48-15.36,5.65,5.65,0,0,1,10.84-.42,20.67,20.67,0,0,1,.42,8.1,6.3,6.3,0,0,0,8,4.63,3.26,3.26,0,0,0,.63-2.84,51.73,51.73,0,0,1-4.63-11.84A11.52,11.52,0,0,0,167.81,195a21.75,21.75,0,0,1-7.67,3.74,2.41,2.41,0,0,0-.42,3.52,11.5,11.5,0,0,1,1.84,4.95,37.69,37.69,0,0,1,.8,10.75l-.54-.23a41.29,41.29,0,0,0-26.82-.52,23.79,23.79,0,0,1-13.88,3.89,14.9,14.9,0,0,1-7.67-1.89,14,14,0,0,0-8.52-3.27,6.83,6.83,0,0,1-5.47-4,9.83,9.83,0,0,0-8.83-3.89,7.23,7.23,0,0,1-8.2-4.42,6.05,6.05,0,0,1,4.41-8.52,26.88,26.88,0,0,1,10,.53,6.45,6.45,0,0,0,6.1-2.32,69.39,69.39,0,0,1,7.36-9.79,1.37,1.37,0,0,0,.33-1.28,1.4,1.4,0,0,0-.91-1,17.42,17.42,0,0,0-21.18,7.37A18,18,0,0,1,82,194.59a8.52,8.52,0,0,0-4,7.68,2.47,2.47,0,0,1-2.89,2.21,2.94,2.94,0,0,1-.42,0,15.77,15.77,0,0,1-10.31-3.63A19,19,0,0,0,44.15,196a19.8,19.8,0,0,1-7.41,1.08M138.4,272.35A29.49,29.49,0,0,1,133,277a11.73,11.73,0,0,0-2.58,15.57,17,17,0,0,1,1.47,2.68,2.57,2.57,0,0,1-.16,3.21,53.21,53.21,0,0,1-12.25,6.42,60.65,60.65,0,0,1-13.3,4.58,21.75,21.75,0,0,1-11.36-1.84,35.81,35.81,0,0,0-8-3.27,12.09,12.09,0,0,1,.16,2.16,29.08,29.08,0,0,1,7.41,5.37.94.94,0,0,1-.52,1.1q-5.57,2.1-10.89,4.74a25.6,25.6,0,0,1-8,.68,5.2,5.2,0,0,0-.32-1.74A14.48,14.48,0,0,0,67.81,298a13.67,13.67,0,0,1-5.57-4.53,19.49,19.49,0,0,0,7.67,24.73,1.77,1.77,0,0,1,.53,2.63,24.59,24.59,0,0,1-12.2,2.37A33.65,33.65,0,0,0,35,309.64c-.57-1.86-1.11-3.74-1.62-5.61s-1-3.72-1.45-5.58q-.86-3.49-1.6-7-.61-2.94-1.16-5.88A29.38,29.38,0,0,0,50.1,270,20.84,20.84,0,0,0,53,260a5.51,5.51,0,0,1,1.32-3.19A36.63,36.63,0,0,1,61,250.08a2,2,0,0,1,1.53-.34,2,2,0,0,1,1.3.88,4.75,4.75,0,0,1,1.44,6.07,10.65,10.65,0,0,0-5.17,8.54q1.23,9.56,2.35,19.12a30,30,0,0,0,11.11-18.94V265a16.27,16.27,0,0,0-3.72-9.26,41.24,41.24,0,0,1-4-7.7,5.4,5.4,0,0,1,2.77-6.91,54.05,54.05,0,0,1,8-7,20.77,20.77,0,0,1,13.46-4.21,3.78,3.78,0,0,1,4,5.23,23.87,23.87,0,0,0-3.72,10.65,6.58,6.58,0,0,1-2.89,7.63,9.86,9.86,0,0,0-7.33,12,5.44,5.44,0,0,1,4.33-3.25,6,6,0,0,1,6.67,4,15.18,15.18,0,0,0,19.29,17.86,42.08,42.08,0,0,0-13.34-18.76,9.79,9.79,0,0,1-3-13.59,12.82,12.82,0,0,0,1.75-10.29,2.86,2.86,0,0,1,1.21-3.58l.15-.31A18.55,18.55,0,0,1,110,230.42q12.21-1.87,24.29-4.47a43.08,43.08,0,0,1,27.39,1.58,1.25,1.25,0,0,1,.37,1,1.23,1.23,0,0,1-.52.91,50.41,50.41,0,0,0-9.1,1.9,13,13,0,0,0-6.05,4.42,28.4,28.4,0,0,1-8.57,7.26,22.35,22.35,0,0,0-16.56,8.2,31.71,31.71,0,0,1-11.41,6.63,25.38,25.38,0,0,0,25.4-.95,4,4,0,0,0,1.94-2.47,16.16,16.16,0,0,1,3.16-6.63,35,35,0,0,1,27-11.57c3.08-.07,6.17,0,9.25.1a13.27,13.27,0,0,1,5.42,1.06,22.3,22.3,0,0,0,10.15,3.1,16.7,16.7,0,0,1,9.35,4.05,9.52,9.52,0,0,1,1.79,7.37,38.48,38.48,0,0,0-4,9.36,12.47,12.47,0,0,1-4.16,7.31,21.38,21.38,0,0,1-7.67,4.85A30,30,0,0,0,177,281.93a15.66,15.66,0,0,1-8,4,24,24,0,0,0-11.36,4.31,37.8,37.8,0,0,1-12.51,5.68,11.11,11.11,0,0,1-11.88-6.36,14.88,14.88,0,0,1,.05-9.26,5.35,5.35,0,0,1,5.36-3.48,5.41,5.41,0,0,0,3.79-2.43,5.47,5.47,0,0,0,.63-4.46,17.84,17.84,0,0,0-4.65,2.42M55.3,327.81a48.84,48.84,0,0,1,12.14-.37,3.75,3.75,0,0,1-.94,3.63,23.89,23.89,0,0,0-6.37,22.09A30.14,30.14,0,0,1,58.72,362a220.12,220.12,0,0,1-14.21-26.81c-1-2.36-2.06-4.74-3-7.14a29.31,29.31,0,0,0,13.81-.24M174,411.62a21.78,21.78,0,0,1-22.93,4.68,7.38,7.38,0,0,0-10,3.26,35.91,35.91,0,0,1-19.32,8.31,221.8,221.8,0,0,1-55.52-54.54q-3.37-4.74-6.5-9.67A36,36,0,0,0,71.91,329.8,4.35,4.35,0,0,1,75,325a117.32,117.32,0,0,1,27.24-10.62,25.87,25.87,0,0,1,6.46-.21,1.66,1.66,0,0,1,.69,1.94,39.89,39.89,0,0,0-4.63,10.68,7.05,7.05,0,0,1-4.26,5.47,23,23,0,0,0-16.56,12,33.23,33.23,0,0,1-5.79,6.84,28.57,28.57,0,0,0,29.13-18.73,39.55,39.55,0,0,1,11.36-21.15,50.87,50.87,0,0,1,29.23-12.52q7.54-.89,15-2.11a18.88,18.88,0,0,1-3.79,9.79A43,43,0,0,1,153,311.6a20.16,20.16,0,0,0-11.47,8.21,11.38,11.38,0,0,1-4.83,1.37,69.81,69.81,0,0,1-10.62-2.32,15,15,0,0,0-1.11,2.37,14.64,14.64,0,0,0,2.26,2A1.22,1.22,0,0,1,127,325a135.41,135.41,0,0,0-11.2,7.84A27.86,27.86,0,0,0,104,357a5,5,0,0,1-2.36,4.53,16.09,16.09,0,0,0-9.94,14.94,17.82,17.82,0,0,1-2.31,8.94,22.7,22.7,0,0,0,18.29-18.62c-.16-3.48-.34-6.95-.52-10.42a20.54,20.54,0,0,1,10.93-21,2.31,2.31,0,0,1,3.16,1.84,15.12,15.12,0,0,0,4.94,12.73,30.33,30.33,0,0,0,10.15,6.68,14.51,14.51,0,0,1,4.84,4,27.52,27.52,0,0,0,29.49,1.89,135.2,135.2,0,0,0-13.77-8.83,14.89,14.89,0,0,0-14.52-.85,14.87,14.87,0,0,1-14.93-8.63,13.83,13.83,0,0,1,.53-12.94,22.33,22.33,0,0,1,16.3-6.63,9.4,9.4,0,0,0,9.36-5.26,17.27,17.27,0,0,1,7.46-9.36,13,13,0,0,0,7.42-10,6.78,6.78,0,0,1,6-7.15,8.12,8.12,0,0,0,9.57-6.84,9.08,9.08,0,0,1,6.05-7.47,17,17,0,0,0,12.09-11.32,18.84,18.84,0,0,1,8.36-9.15,13.28,13.28,0,0,1,14.67-.05,18.79,18.79,0,0,1,5.57,14.62,18.71,18.71,0,0,0-.31,10.74A31.05,31.05,0,0,1,230.8,299a22.36,22.36,0,0,0,2.84,18.94,44.39,44.39,0,0,1,1,41.78,16.62,16.62,0,0,0-5,10.31,11.64,11.64,0,0,1-3.57,6.52,22.71,22.71,0,0,0-9.15,13,15.38,15.38,0,0,1-8.1,9.26A25.17,25.17,0,0,0,198,405.88a19.32,19.32,0,0,1-15.25,4.53,8.57,8.57,0,0,0-8.72,1.21M182.66,457A23.7,23.7,0,0,1,201,443.34a28,28,0,0,0,16.09-4.84,3,3,0,0,1,5.15,2.84,6.53,6.53,0,0,1-3.36,2.53,7.84,7.84,0,0,0-5.58,9.15,15,15,0,0,1-2.45,10.42A219.77,219.77,0,0,1,182.66,457m75.52,8.92a222,222,0,0,0,24.1-2.63,11.68,11.68,0,0,1-5-4.15,9.39,9.39,0,0,0-8.52-3.73,10.11,10.11,0,0,1-7-3.9,8.54,8.54,0,0,0-7.84-3.26,5,5,0,0,0-3.31,2.11,11.84,11.84,0,0,0,2.11,10.52q2.61,2.64,5.45,5M322,452.8a219,219,0,0,1-33.31,9.32,19,19,0,0,1-5.69-5.47,13.29,13.29,0,0,0-8-6.68,6.57,6.57,0,0,1-5.63-5.37,5.83,5.83,0,0,0-5.84-4.84,10.28,10.28,0,0,1-7.88-4.05,5.71,5.71,0,0,1,.52-8.57,12.37,12.37,0,0,0,7.68-1.85,8.82,8.82,0,0,1,12.25,5.58,10.15,10.15,0,0,0,12,8.16A18,18,0,0,1,298.57,442a102.61,102.61,0,0,0,13.2,7.26A51.13,51.13,0,0,0,322,452.8m-18.29-21.88a22.24,22.24,0,0,1,11.36,2,10.6,10.6,0,0,0,9.1,1.9A101.3,101.3,0,0,1,335,434.5a27.35,27.35,0,0,1,14.2,2.42,17.61,17.61,0,0,0,4.45,1.29A217.74,217.74,0,0,1,329.15,450a39.1,39.1,0,0,1-14-8.57,9.07,9.07,0,0,0-8.52-4.53,4.8,4.8,0,0,1-4.68-3.42,1.79,1.79,0,0,1,.1-1.71,1.88,1.88,0,0,1,1.63-.87M432.25,127.47a24.47,24.47,0,0,0-18.79,6.09,10.51,10.51,0,0,1-14-1.57,24.9,24.9,0,0,0-18.09-7.48A11.88,11.88,0,0,0,369.61,130a18.7,18.7,0,0,1-24.3,6.94,2.62,2.62,0,0,1-1.1-3.16,21.58,21.58,0,0,1,10.57-14.1,41.76,41.76,0,0,0,11.57-9.47,6,6,0,0,1,8-1,14.37,14.37,0,0,0,19.56-3.26,26.12,26.12,0,0,1,16.17-7.66,222.16,222.16,0,0,1,22.18,29.24m-26.5-33.91a44.39,44.39,0,0,0-33,9.17,1.6,1.6,0,0,1-1.21-2.89,66.82,66.82,0,0,1,17.93-9.79,12,12,0,0,0,7-5.69q4.77,4.47,9.28,9.2M385.43,74.7a23.9,23.9,0,0,0-4.68,10.15A14.32,14.32,0,0,1,372,93.63a1.19,1.19,0,0,1-1.2-.21,1.23,1.23,0,0,1-.38-1.16,9.73,9.73,0,0,1,3.37-6.47,27.58,27.58,0,0,0,2.52-18.18q4.67,3.44,9.15,7.09M371.81,64.42A42.15,42.15,0,0,0,362,83.58,17.64,17.64,0,0,0,361.72,94a19.92,19.92,0,0,1-3.89,15.68,33.16,33.16,0,0,1-7.26,6.42,22.19,22.19,0,0,0-7,8,15.58,15.58,0,0,1-5.58,7.16,4,4,0,0,1-6.31-2.21,8.23,8.23,0,0,1,.74-4,23.53,23.53,0,0,0,7.26-28.94A22.37,22.37,0,0,0,328,124.62a45.62,45.62,0,0,1-11.56,29.57,27.86,27.86,0,0,1-8.78,6.05,3.64,3.64,0,0,1-4.89-2.42,12,12,0,0,1,2.52-9.16,1,1,0,0,0-1.84-.63,20.82,20.82,0,0,0-4.57,10.63A60.62,60.62,0,0,1,290.32,177a2.89,2.89,0,0,1-5.21-.79,32.49,32.49,0,0,1,.06-14.68,13.94,13.94,0,0,0,.52-12.62A23,23,0,0,1,296,127a23.7,23.7,0,0,0,24.18-23.57,25.76,25.76,0,0,0-26.6,18.62c-1.16,1.23-2.28,2.5-3.37,3.79a1,1,0,0,1-1.07.23,1,1,0,0,1-.61-.91,49.76,49.76,0,0,1,.11-14.52,80.1,80.1,0,0,1,19.55-26.26,20.61,20.61,0,0,0,11.15-13.15,33.46,33.46,0,0,0,23.18-24.06,221.86,221.86,0,0,1,29.29,17.21M328.2,40.85a33.42,33.42,0,0,0-13.38,26.53,3.66,3.66,0,0,1-7.05,1.16,58.33,58.33,0,0,0-4.94-36.13,219.27,219.27,0,0,1,25.37,8.44M211.08,27.78a83.86,83.86,0,0,0-.57,12.87,27.76,27.76,0,0,0,7.67,16A17.4,17.4,0,0,1,220.6,77.8a115.57,115.57,0,0,0-8.31,20.3A3.44,3.44,0,0,1,207,100a3.75,3.75,0,0,1-1.21-1.84,1.52,1.52,0,0,0-2.68-.58,4.48,4.48,0,0,1-6.41-1.21,16.6,16.6,0,0,1-3.42-11.68,32,32,0,0,0-.42-10,1,1,0,0,0-2.05.37,13.43,13.43,0,0,1,.05,6,4.06,4.06,0,0,1-7,.31,67.54,67.54,0,0,1-3.73-12.47,10.2,10.2,0,0,1,3.15-10.26,24.42,24.42,0,0,0,4.52-16.94,18.38,18.38,0,0,1,1-9.17l.45-.12q2.63-.69,5.26-1.33c3.39-.82,6.8-1.53,10.23-2.19q3.17-.6,6.35-1.11m79.55,1.75a37.67,37.67,0,0,0,12,41,8.83,8.83,0,0,1,.16,12.2,7.16,7.16,0,0,1-10.67,1,21,21,0,0,1-1.74,14.63q-1.47,2.43-3.15,4.73a2.73,2.73,0,0,1-4.79-1A31.29,31.29,0,0,0,265.08,71.9a30.73,30.73,0,0,0,12.62,32.83,12,12,0,0,1,1.68,13.1,13.5,13.5,0,0,0-.26,11.42,16.14,16.14,0,0,1,.74,7.52,67.83,67.83,0,0,0-.69,12.73,1.43,1.43,0,0,1-1,.74,1.44,1.44,0,0,1-1.22-.37q-5.9-4.08-12-7.78a27.18,27.18,0,0,0-28.71-21,27.41,27.41,0,0,0,25.24,24.62,65.85,65.85,0,0,1,12.72,9.68A26.73,26.73,0,0,1,276.33,179a45.83,45.83,0,0,1-9.15,18.73,7.15,7.15,0,0,1-9.25-3.16,45.71,45.71,0,0,0-14.62-19.36,46.29,46.29,0,0,1-14.72-11.57A19.1,19.1,0,0,1,229,140a2.24,2.24,0,0,0-2.63-.94,6.17,6.17,0,0,1-6.52,3.63,29.46,29.46,0,0,1,.42-21.94,17.69,17.69,0,0,1,22.61-10.84A20.54,20.54,0,0,0,264,103.36a20.64,20.64,0,0,0-25.34-5.15,25.5,25.5,0,0,1-12.62,8.31,11.24,11.24,0,0,0-6.63,5.89,33.8,33.8,0,0,0-3.62,6.79,1.06,1.06,0,0,1-1.84-.63,25.89,25.89,0,0,1,.68-17.15A21.61,21.61,0,0,1,228.91,88.9a20.22,20.22,0,0,0-.95-2.53,16.16,16.16,0,0,1-4.78,1.26A2.45,2.45,0,0,1,222.13,84a32.31,32.31,0,0,1,21.92-17,67,67,0,0,0,10.31-2.74,26.24,26.24,0,0,0,23-20.52,27.77,27.77,0,0,0-25.76,10.95,29.42,29.42,0,0,1-3.05,6.94,3.79,3.79,0,0,1-6.83-.63A20.22,20.22,0,0,1,242,44.23,9.39,9.39,0,0,1,250,39.6a42.54,42.54,0,0,0,9-14.2,221.31,221.31,0,0,1,31.54,4.13M235,60.38a14.52,14.52,0,0,1-5.54,8.73A2.81,2.81,0,0,1,227,67.27a44.56,44.56,0,0,1-.57-18.36,37,37,0,0,0-8.23-22.15q7.66-1,15.37-1.39c2.94-.17,5.87-.27,8.81-.32h.69A16.44,16.44,0,0,0,239,37.71a5.33,5.33,0,0,1-.42,3.78A8.6,8.6,0,0,0,235,49.6,36.36,36.36,0,0,1,235,60.38m16.32-35.3v.25m-123.1,406.8a30.32,30.32,0,0,0,6.33-2.36,15,15,0,0,1,9.15-1.58,32.11,32.11,0,0,0,8.62-1.05,18.31,18.31,0,0,0,13.25-3.37A10.7,10.7,0,0,1,176.86,422a2.49,2.49,0,0,1,.31,3.47,44.77,44.77,0,0,1-4.52,2.32,13.23,13.23,0,0,0-8.31,6,19.47,19.47,0,0,1-15.3,10q-9.47-4.65-18.45-10.18l-2.34-1.47M179.48,456c-2.67-.85-5.33-1.74-8-2.69q-7.59-2.73-15-6A38,38,0,0,0,176.75,434a24.06,24.06,0,0,1,12.93-5.58,32.53,32.53,0,0,0,13.15-5,21.15,21.15,0,0,1,13.67-4.42,1.85,1.85,0,0,1,1.35,1.18,1.83,1.83,0,0,1-.3,1.76,30.55,30.55,0,0,0-15.35,13.79,10.65,10.65,0,0,1-7.36,4.21A16.28,16.28,0,0,0,179.48,456m35.06,8a17.61,17.61,0,0,0,3.12-8.35,6.84,6.84,0,0,1,4.41-6.52,16.52,16.52,0,0,0,8.84-6.63,6.27,6.27,0,0,1,11.56,2.31,6.8,6.8,0,0,0,2.32,7.05,11.61,11.61,0,0,1-.21,9.68,25.28,25.28,0,0,1,7.64,4.61q-3.06.08-6.17.08c-1,0-2.06,0-3.09,0-1.81,0-3.62-.07-5.43-.14q-6.33-.24-12.63-.84c-3.46-.33-6.92-.74-10.36-1.23m244.2-160.12a221,221,0,0,1-93.83,127.57A75.76,75.76,0,0,1,349.73,429a62.84,62.84,0,0,0-20.29-2.84,73.77,73.77,0,0,1-14.2-1.79,75.1,75.1,0,0,1-24.19-8.94,16.91,16.91,0,0,1-7.25-10.21,26.2,26.2,0,0,1-2.95-16.63,9.91,9.91,0,0,0-4-8A17.34,17.34,0,0,1,274.23,357a35.49,35.49,0,0,0-2.94-30.83A113.08,113.08,0,0,0,257.4,307a34.78,34.78,0,0,1-3.15-29.36,12.93,12.93,0,0,1,19.66-9.15q11.32,8.25,22,17.36A14.78,14.78,0,0,1,299.68,296a63.77,63.77,0,0,0-1.47,15.89,9.94,9.94,0,0,0,2.73.73,4.89,4.89,0,0,1,9.15,1.37,66.49,66.49,0,0,1-.42,14.1,9.23,9.23,0,0,1-.95,12.63,18.74,18.74,0,0,0-8,23A18.87,18.87,0,0,0,314,340.54a64.86,64.86,0,0,0,1.26-14.31,63.51,63.51,0,0,1,6.31,24.93,23.46,23.46,0,0,0,15.77,15.47,28.7,28.7,0,0,0-12.09-33.35,32,32,0,0,1-9.36-19.36,1,1,0,0,1,.54-.76,1,1,0,0,1,.93,0,42,42,0,0,0,15.83,6.58,30.51,30.51,0,0,1,15.3,13,4.87,4.87,0,0,0,3.68-.42,9.33,9.33,0,0,1-.32-4.42,14.77,14.77,0,0,1,8.1,8.84A71.3,71.3,0,0,0,372,376.42a25.72,25.72,0,0,0-2.2-33.88,11.66,11.66,0,0,1-4.63-8.42,14.13,14.13,0,0,0-3.16-5.89A29,29,0,0,0,342,318.12a2.27,2.27,0,0,1-.63-4.31,5.93,5.93,0,0,1,6.36-.95,11.84,11.84,0,0,0,10.15-1.94q8-6.21,15.67-12.89a39.65,39.65,0,0,0-28.71,3.79,15.2,15.2,0,0,0-5.36,5.89,10.28,10.28,0,0,1-14.2,3.26q-5.39-3.83-10.83-7.58A20.66,20.66,0,0,1,306.72,287a10,10,0,0,1,6.63-10.63,20.54,20.54,0,0,1,18.5,1.79q4.71,3.54,9.26,7.26A29.15,29.15,0,0,0,372,282.66a13.26,13.26,0,0,0-7.15-3.36,20.31,20.31,0,0,1-12-3.58,19.63,19.63,0,0,0-12.1-.42,16.7,16.7,0,0,1-9.78-.84,2.54,2.54,0,0,1-.21-4.84,58.93,58.93,0,0,1,33.13-2.84,40.74,40.74,0,0,0,14.93,4.94,22.55,22.55,0,0,1,17,14.21,26.38,26.38,0,0,0,30,23A53.43,53.43,0,0,0,403.47,286a12,12,0,0,1-7.15-9.26,8,8,0,0,0-5.89-6.1,35,35,0,0,1-8.78-4.37,2.27,2.27,0,0,1,.36-3.89,30.47,30.47,0,0,1,19.25-.16c2.27.87,4.54,1.78,6.78,2.74a10.19,10.19,0,0,1,1.47-1.74,2.59,2.59,0,0,1,1-3.31,16,16,0,0,1,11.78-1.42,19.82,19.82,0,0,1,8.46,6.31,99.9,99.9,0,0,1,6.89,9.47,8.13,8.13,0,0,1,2.26,6.84,21.44,21.44,0,0,0,18.84,22.74M110,72a25.86,25.86,0,0,0,6.48,5.16,20.33,20.33,0,0,1,9.15,19.52,16.9,16.9,0,0,0,.47,9.63,29.85,29.85,0,0,1,2.73,8.68,5.4,5.4,0,0,0,2.63,4.26,2.16,2.16,0,0,0,3.73-1.47,20.86,20.86,0,0,1,5.79-16.2,60.23,60.23,0,0,0,6.73-11.26,36.37,36.37,0,0,1-5.26,31.88,7.74,7.74,0,0,0-2.31,5,37.69,37.69,0,0,0,6.52,20.62,20.18,20.18,0,0,0,16.93,7.69,8.27,8.27,0,0,0,5.88-10,15.69,15.69,0,0,0-8.51-14.1,11.13,11.13,0,0,1-5.47-7.05,109.27,109.27,0,0,1-.53-12,34,34,0,0,1,4.63-17A39.94,39.94,0,0,1,171,124.83a19,19,0,0,0,.84,15,37.53,37.53,0,0,1,3.57,18.31,11.25,11.25,0,0,0,9.57,13,35.58,35.58,0,0,1,11.36,7.37,3.09,3.09,0,0,0,4.89-2.26,14.61,14.61,0,0,0-3-8.45,1.14,1.14,0,0,1,.12-1.26,1.13,1.13,0,0,1,1.22-.34,13.84,13.84,0,0,1,5.78,10.42,38.47,38.47,0,0,0,3.37,15.15,18.82,18.82,0,0,0,20.19,11A27.24,27.24,0,0,1,245,202.7a2.54,2.54,0,0,0,2.84-3.48A21.84,21.84,0,0,0,234.9,182a27,27,0,0,1-17.09-24.15,24.59,24.59,0,0,0-7.88-15.63,43,43,0,0,1-9.52-9,111,111,0,0,0-7.83-8.11,12.12,12.12,0,0,1-3.53-10.26,1.32,1.32,0,0,1,2.63.11,12.26,12.26,0,0,0,7,11.26,19.24,19.24,0,0,1,7.41,4.68,1.9,1.9,0,0,0,3.16-.16,19.66,19.66,0,0,0-1.42-6.78,2.64,2.64,0,0,1,1.36-3.42c-.69-3.62-1.4-7.23-2.1-10.84a6.5,6.5,0,0,0-8.52-5.58,4.63,4.63,0,0,1-5-2.31,72.23,72.23,0,0,0-10.26-13.52,4.7,4.7,0,0,0-6.52-1.06,14.84,14.84,0,0,1-12.14,2.63A14.37,14.37,0,0,1,156.77,75,5.1,5.1,0,0,0,163,76.8a8,8,0,0,1,10.88,4.26,3.15,3.15,0,0,0,5.36-3,22.14,22.14,0,0,0-4.41-9.63A14.17,14.17,0,0,0,163.08,63a19.65,19.65,0,0,1-11.46-2.84,25.35,25.35,0,0,1-8.47-9.65A220.49,220.49,0,0,0,110,72M550.27,245.64H550m-88.88,48.68a24,24,0,0,0-15.28-19.13,10,10,0,0,1-5.68-6.1,8.42,8.42,0,0,0-4.1-4.84,12.48,12.48,0,0,1-3.52-2.74,2.05,2.05,0,0,1,1.84-3.41,34.29,34.29,0,0,1,14,1.68A52,52,0,0,0,466,260.83a220.8,220.8,0,0,1-4.88,33.49M364.4,257.6a10.7,10.7,0,0,1-6.15,3.23,2.83,2.83,0,0,1-3.05-4.26A12,12,0,0,1,367,251.05l.31,0a13.28,13.28,0,0,0,14.41-12.16,19.52,19.52,0,0,1-10.46-2.78,10.81,10.81,0,0,0-13.83,9,36.77,36.77,0,0,1-16,17,38.25,38.25,0,0,1-11.15,2.57,1.09,1.09,0,0,1-1-.24,1.11,1.11,0,0,1-.33-1,11.58,11.58,0,0,1,3.26-10.21A19.13,19.13,0,0,0,336,228.37a20.39,20.39,0,0,0-11.68,28,15.79,15.79,0,0,1,0,9.57,26.24,26.24,0,0,1-43.74-12.73,4.11,4.11,0,0,0-4-3.79,5.79,5.79,0,0,1-3.68-8.41,17.9,17.9,0,0,1,4.84-8.11,20.26,20.26,0,0,0,9.57-6.2,18.84,18.84,0,0,1,16.09,5.89,5.71,5.71,0,0,1-1.58,7.89,18.14,18.14,0,0,1-13.67-.74,1.62,1.62,0,0,0-.87,1.22,1.58,1.58,0,0,0,.5,1.41q3.75,2.37,7.42,4.84a3.56,3.56,0,0,1,2,3.27,10.15,10.15,0,0,0,8.36,13.1,20.07,20.07,0,0,1,.58-19.84A12.62,12.62,0,0,0,302.2,225a40.64,40.64,0,0,1-5.15-2.79,2.32,2.32,0,0,1,1.21-4.05,30.91,30.91,0,0,0,13.56-2,35.54,35.54,0,0,1,19.35-.37,37.92,37.92,0,0,1,18.61,14.52,24.54,24.54,0,0,1,3.47,6.53,2.19,2.19,0,0,0,3.32.94,22.21,22.21,0,0,0,3.1-12.89,6.38,6.38,0,0,0-4.21-3.73,64.43,64.43,0,0,1-13.62-5.1,1.46,1.46,0,0,1-.48-1.59,1.44,1.44,0,0,1,1.33-1q5.6.12,11.19.1a15.5,15.5,0,0,1,9.78,2.95,58.39,58.39,0,0,0,10.89,7.63,28.5,28.5,0,0,1,7.46,7.63,8.12,8.12,0,0,0,5.58,3.47,16.68,16.68,0,0,1,13.09,5,14.62,14.62,0,0,0-11.31-18,33.36,33.36,0,0,1-11.56-1.69,15.1,15.1,0,0,1-6.42-4.94,6.57,6.57,0,0,1,2.74-8.31A49.24,49.24,0,0,1,404,201.64a75.64,75.64,0,0,1,19.24,4.42,34.88,34.88,0,0,0,35.13,5.58,21.09,21.09,0,0,0-33.23-10.94,14.44,14.44,0,0,1-8.52-1.48,1,1,0,0,1,.21-1.63,48.66,48.66,0,0,1,22.08-12.68,32,32,0,0,0,17.1-6.77,220.39,220.39,0,0,1,10.51,67.49c0,1.4,0,2.8,0,4.19a18,18,0,0,0-14,1.8,39.36,39.36,0,0,1-21.77,1.9.94.94,0,0,1-.46-1,.91.91,0,0,1,.72-.78,34.31,34.31,0,0,0,19.62-26.88,30.2,30.2,0,0,0-26.4,26,10.62,10.62,0,0,1-9,2.21,23.55,23.55,0,0,1-16,3.36,80.19,80.19,0,0,0-12.2-.63,12.68,12.68,0,0,0-9.09,3.58,10.53,10.53,0,0,1-7.47,2.58L370,262a2.48,2.48,0,0,1-2.63-2.63,1.89,1.89,0,0,0-3-1.81m86-94.92A222.5,222.5,0,0,0,437,135.29a31,31,0,0,1-35.58,6.11,9,9,0,0,0-5.84-5.94,4,4,0,0,0-3.58,6.73,27.75,27.75,0,0,1-4,27.89,19.65,19.65,0,0,1-5.79-23.68,15.56,15.56,0,0,0,3.37-7.26,6.54,6.54,0,0,0-11.78-4.94A25.26,25.26,0,0,1,349,143.88a32.16,32.16,0,0,0-11.15.63,4.45,4.45,0,0,0,2.73,3.15,56.88,56.88,0,0,1,19.77,10.21,12,12,0,0,0,8.94,10.73,11,11,0,0,1,10.52,9.58,31.22,31.22,0,0,0,4.83,14.62,23.4,23.4,0,0,1-24.92-23.67,9.25,9.25,0,0,0-2-6.52,40,40,0,0,0-15.67-7.37,116.83,116.83,0,0,0-16,.53,85.39,85.39,0,0,1-15.14,13.78,14.1,14.1,0,0,0-5.57,5.68,10.22,10.22,0,0,1-3.68,4.84,26.74,26.74,0,0,0-9.15,7.58,3,3,0,0,0,1.57,4.63,9.45,9.45,0,0,0,10.62-4.63A14.46,14.46,0,0,1,320,180.07a18.82,18.82,0,0,0-9.72,10.31,62.29,62.29,0,0,0-7.63,8.11,3.23,3.23,0,0,1-3.89,1.47,29.46,29.46,0,0,0-17.88,3.26A21,21,0,0,0,272,218.9a3.33,3.33,0,0,0,3,3.89,24.43,24.43,0,0,0,14.61-8.41,7.8,7.8,0,0,1,8.1-2.43,27.47,27.47,0,0,0,14.62-2.1,21.18,21.18,0,0,1,8.83-1.58,28.58,28.58,0,0,0,15.14-4,6.12,6.12,0,0,1,7.47.85,19.87,19.87,0,0,0,19.14-.32,80.35,80.35,0,0,1,23-7.58,175.34,175.34,0,0,1,23.14-.84,142.81,142.81,0,0,1,11.36-9.47,6.67,6.67,0,0,0,0-7.57A18.58,18.58,0,0,1,425.65,155a19.82,19.82,0,0,1,.21,23.78,4,4,0,0,0-.3,3.09,4,4,0,0,0,2,2.38,25.05,25.05,0,0,0,11.14-9.78,18.62,18.62,0,0,1,11.71-11.82"/></g></g></svg>