<?xml version="1.0" encoding="utf-8"?>
<!-- Generator: Adobe Illustrator 23.0.3, SVG Export Plug-In . SVG Version: 6.00 Build 0)  -->
<svg version="1.1" id="Layer_1" xmlns="http://www.w3.org/2000/svg" xmlns:xlink="http://www.w3.org/1999/xlink" x="0px" y="0px"
	 viewBox="0 0 341.3 341.3" style="enable-background:new 0 0 341.3 341.3;" xml:space="preserve">
<style type="text/css">
	.st0{opacity:0.8;}
</style>
<path class="st0" d="M74.2,170.7v67.7c0,15.9,12.9,28.7,28.7,28.7h135.4c15.9,0,28.7-12.9,28.7-28.7V102.9
	c0-15.9-12.9-28.7-28.7-28.7H102.9c-15.9,0-28.7,12.9-28.7,28.7V170.7z M192.5,167.3v8.7h-24.9v79.1h-20.3v-79.1h-24.9v-17.3h70.1
	V167.3z M241.5,159.7c3.1,0.6,6.6,1.4,7.8,1.9l2,0.8v9.4c0,5.2-0.2,9.4-0.3,9.4c-0.2,0-1.7-0.8-3.5-1.8c-6.8-3.8-17.6-5.3-24.3-3.3
	c-1.6,0.5-3.9,1.9-5.1,3.1c-1.8,1.7-2.2,2.8-2.2,5.6c0,3,0.4,3.8,2.9,6.2c1.6,1.5,7.5,5,13.2,7.8c12.1,6,18.2,11,20.9,17.3
	c2.5,5.6,2.6,17.3,0.2,22.6c-2.3,5-7.2,10-12.1,12.4c-10.4,4.9-27.4,5.3-40.6,1l-4.7-1.6v-20.9l3.8,2.7c4.9,3.5,11.2,5.7,17.9,6.2
	c6.6,0.5,11.5-0.8,14.5-3.6c1.9-1.7,2.3-2.7,2.3-5.6c0-5.5-3.2-8.4-16.1-14.7c-11.5-5.7-15.1-8.2-18.5-13.2
	c-7.5-10.9-5.3-27.7,4.8-35.3C212.8,159.4,227,157,241.5,159.7L241.5,159.7z"/>
</svg>
